# Blender 5.0.1
# www.blender.org
mtllib brdigett.mtl
o Bridgett
v -14.784871 -2.968069 23.146152
v -14.784871 -2.609267 23.146152
v -14.784871 -2.968069 -30.926582
v -14.784871 -2.609267 -30.926582
v 14.784871 -2.968069 23.146152
v 14.784871 -2.609267 23.146152
v 14.784871 -2.968069 -30.926582
v 14.784871 -2.609267 -30.926582
v -14.784871 -2.968069 -22.530415
v -14.784871 -2.968069 14.749989
v -14.784871 -0.968069 14.749985
v -14.784871 -0.968069 -22.530418
v 14.784871 -2.968069 14.749985
v 14.784871 -2.968069 -22.530418
v 14.784871 -0.968069 -22.530415
v 14.784871 -0.968069 14.749989
v 8.762853 -2.968069 -30.926582
v -8.762853 -2.968069 -30.926582
v -8.762853 -2.609267 -30.926582
v 8.762853 -2.609267 -30.926582
v -8.762853 -2.968069 23.146152
v 8.762853 -2.968069 23.146152
v 8.762853 -2.609267 23.146152
v -8.762853 -2.609267 23.146152
v -8.762853 -0.968069 -22.530416
v 8.762853 -0.968069 -22.530416
v -8.762853 -0.968069 14.749987
v 8.762853 -0.968069 14.749987
v 8.762853 -2.968069 -22.530416
v -8.762853 -2.968069 -22.530416
v 8.762853 -2.968069 14.749987
v -8.762853 -2.968069 14.749987
v -11.773862 -2.968069 -30.926582
v -11.773862 -2.609267 23.146152
v -11.773862 -2.968069 -22.530416
v -11.773862 -2.968069 14.749987
v -11.773862 -2.609267 -30.926582
v -11.773862 -2.968069 23.146152
v -11.773862 -0.968069 -22.530416
v -11.773862 -0.968069 14.749987
v 11.773862 -2.609267 -30.926582
v 11.773862 -2.968069 23.146152
v 11.773862 -0.968069 -22.530416
v 11.773862 -0.968069 14.749987
v 11.773862 -2.968069 -30.926582
v 11.773862 -2.609267 23.146152
v 11.773862 -2.968069 -22.530416
v 11.773862 -2.968069 14.749987
v -14.784871 6.445646 12.486265
v -14.784871 6.445646 -20.266697
v 14.784871 6.445646 -20.266695
v 14.784871 6.445646 12.486267
v 11.773862 6.445646 -20.266697
v 11.773862 6.445646 12.486267
v -11.773862 6.445646 -20.266697
v -11.773862 6.445646 12.486267
v -11.773862 1.602019 -21.745661
v -8.762853 1.657597 -21.619753
v -11.773862 1.602019 13.965231
v -8.762853 1.657597 13.839323
v 8.762853 1.657597 -21.619753
v 8.762853 1.657597 13.839323
v 11.773862 1.589649 -21.749437
v 11.773862 1.589649 13.969007
v 14.784871 1.589649 -21.749435
v 14.784871 1.589649 13.969009
v -14.784871 1.602019 13.965227
v -14.784871 1.602019 -21.745661
v -14.784871 -2.968069 -13.210314
v -14.784871 -2.968069 -3.890213
v -14.784871 -2.968069 5.429888
v -14.784871 -0.968069 5.429884
v -14.784871 -0.968069 -3.890217
v -14.784871 -0.968069 -13.210318
v 14.784871 -2.968069 5.429884
v 14.784871 -2.968069 -3.890217
v 14.784871 -2.968069 -13.210318
v 14.784871 -0.968069 -13.210314
v 14.784871 -0.968069 -3.890213
v 14.784871 -0.968069 5.429888
v -8.762853 -2.968069 -13.210316
v -8.762853 -2.968069 -3.890215
v -8.762853 -2.968069 5.429886
v 8.762853 -2.968069 -13.210316
v 8.762853 -2.968069 -3.890215
v 8.762853 -2.968069 5.429886
v 8.762853 -0.968069 -13.210316
v 8.762853 -0.968069 -3.890215
v 8.762853 -0.968069 5.429886
v -8.762853 -0.968069 -13.210316
v -8.762853 -0.968069 -3.890215
v -8.762853 -0.968069 5.429886
v -11.773862 -2.968069 -13.210316
v -11.773862 -2.968069 -3.890215
v -11.773862 -2.968069 5.429886
v 11.773862 -2.968069 -13.210316
v 11.773862 -2.968069 -3.890215
v 11.773862 -2.968069 5.429886
v -14.784871 6.445646 4.298025
v -14.784871 6.445646 -3.890216
v -14.784871 6.445646 -12.078456
v 14.784871 6.445646 -12.078455
v 14.784871 6.445646 -3.890214
v 14.784871 6.445646 4.298026
v -11.773862 6.445646 -12.078456
v -11.773862 6.445646 -3.890214
v -11.773862 6.445646 4.298026
v 11.773862 6.445646 -12.078456
v 11.773862 6.445646 -3.890214
v 11.773862 6.445646 4.298026
v 8.762853 1.657597 -12.754984
v 8.762853 1.657597 -3.890215
v 8.762853 1.657597 4.974554
v -8.762853 1.657597 -12.754984
v -8.762853 1.657597 -3.890215
v -8.762853 1.657597 4.974554
v -11.773862 1.602019 -12.817938
v -11.773862 1.602019 -3.890215
v -11.773862 1.602019 5.037508
v 11.773862 1.589649 -12.819826
v 11.773862 1.589649 -3.890215
v 11.773862 1.589649 5.039396
v 14.784871 1.589649 -12.819824
v 14.784871 1.589649 -3.890213
v 14.784871 1.589649 5.039398
v -14.784871 1.602019 5.037505
v -14.784871 1.602019 -3.890217
v -14.784871 1.602019 -12.817939
v 0.000000 -2.968069 -30.926582
v 0.000000 -2.609267 -30.926582
v 0.000000 -2.968069 23.146152
v 0.000000 -2.609267 23.146152
v 0.000000 -0.968069 -22.530416
v 0.000000 -0.968069 14.749987
v 0.000000 -2.968069 -22.530416
v 0.000000 -2.968069 14.749987
v 0.000000 -0.968069 -13.210316
v 0.000000 -0.968069 -3.890215
v 0.000000 -0.968069 5.429886
v 0.000000 -2.968069 -13.210316
v 0.000000 -2.968069 -3.890215
v 0.000000 -2.968069 5.429886
v -14.784871 -2.968069 18.948071
v 14.784871 -1.788668 18.948071
v -14.784871 -1.788668 18.948069
v 14.784871 -2.968069 18.948069
v 8.762853 -1.788668 18.948069
v -8.762853 -1.788668 18.948069
v -8.762853 -2.968069 18.948069
v 8.762853 -2.968069 18.948069
v -11.773862 -2.968069 18.948069
v -11.773862 -1.788668 18.948069
v 11.773862 -1.788668 18.948069
v 11.773862 -2.968069 18.948069
v 0.000000 -2.968069 18.948069
v 0.000000 -1.788668 18.948069
v -14.784871 -1.788668 -26.728500
v 14.784871 -2.968069 -26.728500
v -14.784871 -2.968069 -26.728498
v 14.784871 -1.788668 -26.728498
v -8.762853 -2.968069 -26.728498
v 8.762853 -2.968069 -26.728498
v 8.762853 -1.788668 -26.728498
v -8.762853 -1.788668 -26.728498
v -11.773862 -2.968069 -26.728498
v -11.773862 -1.788668 -26.728498
v 11.773862 -1.788668 -26.728498
v 11.773862 -2.968069 -26.728498
v 0.000000 -1.788668 -26.728498
v 0.000000 -2.968069 -26.728498
v -14.784871 -2.968069 18.948071
v -14.784871 -2.968069 18.948071
v -14.784871 -2.968069 18.948071
v -14.784871 -2.968069 23.146152
v -14.784871 -2.968069 23.146152
v -14.784871 -2.609267 23.146152
v -14.784871 -2.609267 23.146152
v -14.784871 -1.788668 -26.728500
v -14.784871 -1.788668 -26.728500
v -14.784871 -1.788668 -26.728500
v -14.784871 -2.609267 -30.926582
v -14.784871 -2.609267 -30.926582
v -14.784871 -2.968069 -30.926582
v -14.784871 -2.968069 -30.926582
v -11.773862 -2.968069 -30.926582
v -11.773862 -2.968069 -30.926582
v -11.773862 -2.968069 -30.926582
v 11.773862 -2.609267 -30.926582
v 11.773862 -2.609267 -30.926582
v 11.773862 -2.609267 -30.926582
v 14.784871 -2.609267 -30.926582
v 14.784871 -2.609267 -30.926582
v 14.784871 -2.968069 -30.926582
v 14.784871 -2.968069 -30.926582
v 14.784871 -2.968069 -26.728500
v 14.784871 -2.968069 -26.728500
v 14.784871 -2.968069 -26.728500
v 14.784871 -1.788668 18.948071
v 14.784871 -1.788668 18.948071
v 14.784871 -1.788668 18.948071
v 14.784871 -2.609267 23.146152
v 14.784871 -2.609267 23.146152
v 14.784871 -2.968069 23.146152
v 14.784871 -2.968069 23.146152
v 11.773862 -2.968069 23.146152
v 11.773862 -2.968069 23.146152
v 11.773862 -2.968069 23.146152
v -11.773862 -2.609267 23.146152
v -11.773862 -2.609267 23.146152
v -11.773862 -2.609267 23.146152
v -14.784871 -2.968069 -26.728498
v -14.784871 -2.968069 -26.728498
v -14.784871 -2.968069 -26.728498
v -14.784871 -2.968069 -22.530415
v -14.784871 -2.968069 -22.530415
v -14.784871 -2.968069 -22.530415
v -14.784871 -2.968069 5.429888
v -14.784871 -2.968069 5.429888
v -14.784871 -2.968069 5.429888
v -14.784871 -2.968069 14.749989
v -14.784871 -2.968069 14.749989
v -14.784871 -2.968069 14.749989
v -14.784871 -1.788668 18.948069
v -14.784871 -1.788668 18.948069
v -14.784871 -1.788668 18.948069
v -14.784871 -0.968069 14.749985
v -14.784871 -0.968069 14.749985
v -14.784871 -0.968069 14.749985
v -14.784871 -0.968069 14.749985
v -14.784871 -0.968069 -13.210318
v -14.784871 -0.968069 -13.210318
v -14.784871 -0.968069 -13.210318
v -14.784871 -0.968069 -22.530418
v -14.784871 -0.968069 -22.530418
v -14.784871 -0.968069 -22.530418
v -14.784871 -0.968069 -22.530418
v 14.784871 -2.968069 18.948069
v 14.784871 -2.968069 18.948069
v 14.784871 -2.968069 18.948069
v 14.784871 -2.968069 14.749985
v 14.784871 -2.968069 14.749985
v 14.784871 -2.968069 14.749985
v 14.784871 -2.968069 -13.210318
v 14.784871 -2.968069 -13.210318
v 14.784871 -2.968069 -13.210318
v 14.784871 -2.968069 -22.530418
v 14.784871 -2.968069 -22.530418
v 14.784871 -2.968069 -22.530418
v 14.784871 -1.788668 -26.728498
v 14.784871 -1.788668 -26.728498
v 14.784871 -1.788668 -26.728498
v 14.784871 -0.968069 -22.530415
v 14.784871 -0.968069 -22.530415
v 14.784871 -0.968069 -22.530415
v 14.784871 -0.968069 -22.530415
v 14.784871 -0.968069 5.429888
v 14.784871 -0.968069 5.429888
v 14.784871 -0.968069 5.429888
v 14.784871 -0.968069 14.749989
v 14.784871 -0.968069 14.749989
v 14.784871 -0.968069 14.749989
v 14.784871 -0.968069 14.749989
v 11.773862 -0.968069 -22.530416
v 11.773862 -0.968069 -22.530416
v 11.773862 -0.968069 -22.530416
v 11.773862 -0.968069 14.749987
v 11.773862 -0.968069 14.749987
v 11.773862 -0.968069 14.749987
v -11.773862 -2.968069 -22.530416
v -11.773862 -2.968069 -22.530416
v -11.773862 -2.968069 -22.530416
v -11.773862 -2.968069 14.749987
v -11.773862 -2.968069 14.749987
v -11.773862 -2.968069 14.749987
v 11.773862 -2.968069 -30.926582
v 11.773862 -2.968069 -30.926582
v 11.773862 -2.968069 -30.926582
v 8.762853 -2.968069 -30.926582
v 8.762853 -2.968069 -30.926582
v 8.762853 -2.968069 -30.926582
v 0.000000 -2.968069 -30.926582
v 0.000000 -2.968069 -30.926582
v 0.000000 -2.968069 -30.926582
v -8.762853 -2.968069 -30.926582
v -8.762853 -2.968069 -30.926582
v -8.762853 -2.968069 -30.926582
v -11.773862 -2.609267 -30.926582
v -11.773862 -2.609267 -30.926582
v -11.773862 -2.609267 -30.926582
v -8.762853 -2.609267 -30.926582
v -8.762853 -2.609267 -30.926582
v -8.762853 -2.609267 -30.926582
v 0.000000 -2.609267 -30.926582
v 0.000000 -2.609267 -30.926582
v 0.000000 -2.609267 -30.926582
v 8.762853 -2.609267 -30.926582
v 8.762853 -2.609267 -30.926582
v 8.762853 -2.609267 -30.926582
v -11.773862 -2.968069 23.146152
v -11.773862 -2.968069 23.146152
v -11.773862 -2.968069 23.146152
v -8.762853 -2.968069 23.146152
v -8.762853 -2.968069 23.146152
v -8.762853 -2.968069 23.146152
v 0.000000 -2.968069 23.146152
v 0.000000 -2.968069 23.146152
v 0.000000 -2.968069 23.146152
v 8.762853 -2.968069 23.146152
v 8.762853 -2.968069 23.146152
v 8.762853 -2.968069 23.146152
v 11.773862 -2.609267 23.146152
v 11.773862 -2.609267 23.146152
v 11.773862 -2.609267 23.146152
v 8.762853 -2.609267 23.146152
v 8.762853 -2.609267 23.146152
v 8.762853 -2.609267 23.146152
v 0.000000 -2.609267 23.146152
v 0.000000 -2.609267 23.146152
v 0.000000 -2.609267 23.146152
v -8.762853 -2.609267 23.146152
v -8.762853 -2.609267 23.146152
v -8.762853 -2.609267 23.146152
v -11.773862 -0.968069 -22.530416
v -11.773862 -0.968069 -22.530416
v -11.773862 -0.968069 -22.530416
v -8.762853 -0.968069 -22.530416
v -8.762853 -0.968069 -22.530416
v -8.762853 -0.968069 -22.530416
v -8.762853 -0.968069 -22.530416
v 0.000000 -0.968069 -22.530416
v 0.000000 -0.968069 -22.530416
v 0.000000 -0.968069 -22.530416
v 8.762853 -0.968069 -22.530416
v 8.762853 -0.968069 -22.530416
v 8.762853 -0.968069 -22.530416
v 8.762853 -0.968069 -22.530416
v -11.773862 -0.968069 14.749987
v -11.773862 -0.968069 14.749987
v -11.773862 -0.968069 14.749987
v -8.762853 -0.968069 14.749987
v -8.762853 -0.968069 14.749987
v -8.762853 -0.968069 14.749987
v -8.762853 -0.968069 14.749987
v 0.000000 -0.968069 14.749987
v 0.000000 -0.968069 14.749987
v 0.000000 -0.968069 14.749987
v 8.762853 -0.968069 14.749987
v 8.762853 -0.968069 14.749987
v 8.762853 -0.968069 14.749987
v 8.762853 -0.968069 14.749987
v 11.773862 -2.968069 -22.530416
v 11.773862 -2.968069 -22.530416
v 11.773862 -2.968069 -22.530416
v 8.762853 -2.968069 -22.530416
v 8.762853 -2.968069 -22.530416
v 8.762853 -2.968069 -22.530416
v 0.000000 -2.968069 -22.530416
v 0.000000 -2.968069 -22.530416
v 0.000000 -2.968069 -22.530416
v -8.762853 -2.968069 -22.530416
v -8.762853 -2.968069 -22.530416
v -8.762853 -2.968069 -22.530416
v 11.773862 -2.968069 14.749987
v 11.773862 -2.968069 14.749987
v 11.773862 -2.968069 14.749987
v 8.762853 -2.968069 14.749987
v 8.762853 -2.968069 14.749987
v 8.762853 -2.968069 14.749987
v 0.000000 -2.968069 14.749987
v 0.000000 -2.968069 14.749987
v 0.000000 -2.968069 14.749987
v -8.762853 -2.968069 14.749987
v -8.762853 -2.968069 14.749987
v -8.762853 -2.968069 14.749987
v -8.762853 -2.968069 5.429886
v -8.762853 -2.968069 5.429886
v -8.762853 -2.968069 5.429886
v 8.762853 -2.968069 5.429886
v 8.762853 -2.968069 5.429886
v 8.762853 -2.968069 5.429886
v -8.762853 -2.968069 -26.728498
v -8.762853 -2.968069 -26.728498
v -8.762853 -2.968069 -26.728498
v 8.762853 -2.968069 -26.728498
v 8.762853 -2.968069 -26.728498
v 8.762853 -2.968069 -26.728498
v 8.762853 -0.968069 5.429886
v 8.762853 -0.968069 5.429886
v 8.762853 -0.968069 5.429886
v -8.762853 -0.968069 5.429886
v -8.762853 -0.968069 5.429886
v -8.762853 -0.968069 5.429886
v 8.762853 -1.788668 -26.728498
v 8.762853 -1.788668 -26.728498
v 8.762853 -1.788668 -26.728498
v -8.762853 -1.788668 -26.728498
v -8.762853 -1.788668 -26.728498
v -8.762853 -1.788668 -26.728498
v 8.762853 -1.788668 18.948069
v 8.762853 -1.788668 18.948069
v 8.762853 -1.788668 18.948069
v -8.762853 -1.788668 18.948069
v -8.762853 -1.788668 18.948069
v -8.762853 -1.788668 18.948069
v -8.762853 -2.968069 18.948069
v -8.762853 -2.968069 18.948069
v -8.762853 -2.968069 18.948069
v 8.762853 -2.968069 18.948069
v 8.762853 -2.968069 18.948069
v 8.762853 -2.968069 18.948069
v -11.773862 -2.968069 18.948069
v -11.773862 -2.968069 18.948069
v -11.773862 -2.968069 18.948069
v -11.773862 -2.968069 -26.728498
v -11.773862 -2.968069 -26.728498
v -11.773862 -2.968069 -26.728498
v -11.773862 -2.968069 5.429886
v -11.773862 -2.968069 5.429886
v -11.773862 -2.968069 5.429886
v -11.773862 -1.788668 -26.728498
v -11.773862 -1.788668 -26.728498
v -11.773862 -1.788668 -26.728498
v -11.773862 -1.788668 18.948069
v -11.773862 -1.788668 18.948069
v -11.773862 -1.788668 18.948069
v 11.773862 -1.788668 18.948069
v 11.773862 -1.788668 18.948069
v 11.773862 -1.788668 18.948069
v 11.773862 -1.788668 -26.728498
v 11.773862 -1.788668 -26.728498
v 11.773862 -1.788668 -26.728498
v 11.773862 -2.968069 5.429886
v 11.773862 -2.968069 5.429886
v 11.773862 -2.968069 5.429886
v 11.773862 -2.968069 -26.728498
v 11.773862 -2.968069 -26.728498
v 11.773862 -2.968069 -26.728498
v 11.773862 -2.968069 18.948069
v 11.773862 -2.968069 18.948069
v 11.773862 -2.968069 18.948069
v -14.784871 6.445646 -12.078456
v -14.784871 6.445646 -12.078456
v -14.784871 6.445646 -12.078456
v -14.784871 6.445646 -20.266697
v -14.784871 6.445646 -20.266697
v 14.784871 6.445646 4.298026
v 14.784871 6.445646 4.298026
v 14.784871 6.445646 4.298026
v 14.784871 6.445646 12.486267
v 14.784871 6.445646 12.486267
v 11.773862 6.445646 -20.266697
v 11.773862 6.445646 -20.266697
v 14.784871 6.445646 -20.266695
v 14.784871 6.445646 -20.266695
v 11.773862 6.445646 12.486267
v 11.773862 6.445646 12.486267
v -11.773862 6.445646 -20.266697
v -11.773862 6.445646 -20.266697
v -14.784871 6.445646 12.486265
v -14.784871 6.445646 12.486265
v -11.773862 6.445646 12.486267
v -11.773862 6.445646 12.486267
v -11.773862 6.445646 4.298026
v -11.773862 6.445646 4.298026
v -11.773862 6.445646 4.298026
v 11.773862 6.445646 4.298026
v 11.773862 6.445646 4.298026
v 11.773862 6.445646 4.298026
v 14.784871 1.589649 -21.749435
v 14.784871 1.589649 -21.749435
v 14.784871 1.589649 -21.749435
v -14.784871 1.602019 13.965227
v -14.784871 1.602019 13.965227
v -14.784871 1.602019 13.965227
v 14.784871 1.589649 13.969009
v 14.784871 1.589649 13.969009
v 14.784871 1.589649 13.969009
v -14.784871 1.602019 -21.745661
v -14.784871 1.602019 -21.745661
v -14.784871 1.602019 -21.745661
v -11.773862 1.602019 -21.745661
v -11.773862 1.602019 -21.745661
v -11.773862 1.602019 -21.745661
v -11.773862 1.602019 -21.745661
v -8.762853 1.657597 -21.619753
v -8.762853 1.657597 -21.619753
v -11.773862 1.602019 13.965231
v -11.773862 1.602019 13.965231
v -11.773862 1.602019 13.965231
v -11.773862 1.602019 13.965231
v -8.762853 1.657597 13.839323
v -8.762853 1.657597 13.839323
v 8.762853 1.657597 4.974554
v 8.762853 1.657597 4.974554
v 8.762853 1.657597 4.974554
v 8.762853 1.657597 13.839323
v 8.762853 1.657597 13.839323
v -8.762853 1.657597 4.974554
v -8.762853 1.657597 4.974554
v -8.762853 1.657597 4.974554
v -11.773862 1.602019 5.037508
v -11.773862 1.602019 5.037508
v -11.773862 1.602019 5.037508
v 8.762853 1.657597 -21.619753
v 8.762853 1.657597 -21.619753
v 11.773862 1.589649 -21.749437
v 11.773862 1.589649 -21.749437
v 11.773862 1.589649 -21.749437
v 11.773862 1.589649 -21.749437
v 11.773862 1.589649 13.969007
v 11.773862 1.589649 13.969007
v 11.773862 1.589649 13.969007
v 11.773862 1.589649 13.969007
v 11.773862 1.589649 5.039396
v 11.773862 1.589649 5.039396
v 11.773862 1.589649 5.039396
v 14.784871 1.589649 5.039398
v 14.784871 1.589649 5.039398
v 14.784871 1.589649 5.039398
v -14.784871 1.602019 -12.817939
v -14.784871 1.602019 -12.817939
v -14.784871 1.602019 -12.817939
v -14.784871 -2.968069 -13.210314
v -14.784871 -2.968069 -13.210314
v -14.784871 -2.968069 -13.210314
v -14.784871 -2.968069 -3.890213
v -14.784871 -2.968069 -3.890213
v -14.784871 -2.968069 -3.890213
v -14.784871 -0.968069 5.429884
v -14.784871 -0.968069 5.429884
v -14.784871 -0.968069 5.429884
v -14.784871 -0.968069 -3.890217
v -14.784871 -0.968069 -3.890217
v -14.784871 -0.968069 -3.890217
v 14.784871 -2.968069 5.429884
v 14.784871 -2.968069 5.429884
v 14.784871 -2.968069 5.429884
v 14.784871 -2.968069 -3.890217
v 14.784871 -2.968069 -3.890217
v 14.784871 -2.968069 -3.890217
v 14.784871 -0.968069 -13.210314
v 14.784871 -0.968069 -13.210314
v 14.784871 -0.968069 -13.210314
v 14.784871 -0.968069 -3.890213
v 14.784871 -0.968069 -3.890213
v 14.784871 -0.968069 -3.890213
v -8.762853 -2.968069 -13.210316
v -8.762853 -2.968069 -13.210316
v -8.762853 -2.968069 -13.210316
v -8.762853 -2.968069 -3.890215
v -8.762853 -2.968069 -3.890215
v -8.762853 -2.968069 -3.890215
v 8.762853 -2.968069 -13.210316
v 8.762853 -2.968069 -13.210316
v 8.762853 -2.968069 -13.210316
v 8.762853 -2.968069 -3.890215
v 8.762853 -2.968069 -3.890215
v 8.762853 -2.968069 -3.890215
v 8.762853 -0.968069 -13.210316
v 8.762853 -0.968069 -13.210316
v 8.762853 -0.968069 -13.210316
v 8.762853 -0.968069 -3.890215
v 8.762853 -0.968069 -3.890215
v 8.762853 -0.968069 -3.890215
v -8.762853 -0.968069 -13.210316
v -8.762853 -0.968069 -13.210316
v -8.762853 -0.968069 -13.210316
v -8.762853 -0.968069 -3.890215
v -8.762853 -0.968069 -3.890215
v -8.762853 -0.968069 -3.890215
v -11.773862 -2.968069 -13.210316
v -11.773862 -2.968069 -13.210316
v -11.773862 -2.968069 -13.210316
v -11.773862 -2.968069 -3.890215
v -11.773862 -2.968069 -3.890215
v -11.773862 -2.968069 -3.890215
v 11.773862 -2.968069 -13.210316
v 11.773862 -2.968069 -13.210316
v 11.773862 -2.968069 -13.210316
v 11.773862 -2.968069 -3.890215
v 11.773862 -2.968069 -3.890215
v 11.773862 -2.968069 -3.890215
v -14.784871 6.445646 4.298025
v -14.784871 6.445646 4.298025
v -14.784871 6.445646 4.298025
v -14.784871 6.445646 -3.890216
v -14.784871 6.445646 -3.890216
v -14.784871 6.445646 -3.890216
v 14.784871 6.445646 -12.078455
v 14.784871 6.445646 -12.078455
v 14.784871 6.445646 -12.078455
v 14.784871 6.445646 -3.890214
v 14.784871 6.445646 -3.890214
v 14.784871 6.445646 -3.890214
v -11.773862 6.445646 -12.078456
v -11.773862 6.445646 -12.078456
v -11.773862 6.445646 -12.078456
v -11.773862 6.445646 -3.890214
v -11.773862 6.445646 -3.890214
v -11.773862 6.445646 -3.890214
v 11.773862 6.445646 -12.078456
v 11.773862 6.445646 -12.078456
v 11.773862 6.445646 -12.078456
v 11.773862 6.445646 -3.890214
v 11.773862 6.445646 -3.890214
v 11.773862 6.445646 -3.890214
v 8.762853 1.657597 -12.754984
v 8.762853 1.657597 -12.754984
v 8.762853 1.657597 -12.754984
v 8.762853 1.657597 -3.890215
v 8.762853 1.657597 -3.890215
v 8.762853 1.657597 -3.890215
v -8.762853 1.657597 -12.754984
v -8.762853 1.657597 -12.754984
v -8.762853 1.657597 -12.754984
v -8.762853 1.657597 -3.890215
v -8.762853 1.657597 -3.890215
v -8.762853 1.657597 -3.890215
v -11.773862 1.602019 -12.817938
v -11.773862 1.602019 -12.817938
v -11.773862 1.602019 -12.817938
v -11.773862 1.602019 -3.890215
v -11.773862 1.602019 -3.890215
v -11.773862 1.602019 -3.890215
v 11.773862 1.589649 -12.819826
v 11.773862 1.589649 -12.819826
v 11.773862 1.589649 -12.819826
v 11.773862 1.589649 -3.890215
v 11.773862 1.589649 -3.890215
v 11.773862 1.589649 -3.890215
v 14.784871 1.589649 -12.819824
v 14.784871 1.589649 -12.819824
v 14.784871 1.589649 -12.819824
v 14.784871 1.589649 -3.890213
v 14.784871 1.589649 -3.890213
v 14.784871 1.589649 -3.890213
v -14.784871 1.602019 5.037505
v -14.784871 1.602019 5.037505
v -14.784871 1.602019 5.037505
v -14.784871 1.602019 -3.890217
v -14.784871 1.602019 -3.890217
v -14.784871 1.602019 -3.890217
v 0.000000 -0.968069 -13.210316
v 0.000000 -0.968069 -13.210316
v 0.000000 -0.968069 -13.210316
v 0.000000 -0.968069 -3.890215
v 0.000000 -0.968069 -3.890215
v 0.000000 -0.968069 -3.890215
v 0.000000 -0.968069 5.429886
v 0.000000 -0.968069 5.429886
v 0.000000 -0.968069 5.429886
v 0.000000 -2.968069 -13.210316
v 0.000000 -2.968069 -13.210316
v 0.000000 -2.968069 -13.210316
v 0.000000 -2.968069 -3.890215
v 0.000000 -2.968069 -3.890215
v 0.000000 -2.968069 -3.890215
v 0.000000 -2.968069 5.429886
v 0.000000 -2.968069 5.429886
v 0.000000 -2.968069 5.429886
v 0.000000 -2.968069 18.948069
v 0.000000 -2.968069 18.948069
v 0.000000 -2.968069 18.948069
v 0.000000 -1.788668 18.948069
v 0.000000 -1.788668 18.948069
v 0.000000 -1.788668 18.948069
v 0.000000 -1.788668 -26.728498
v 0.000000 -1.788668 -26.728498
v 0.000000 -1.788668 -26.728498
v 0.000000 -2.968069 -26.728498
v 0.000000 -2.968069 -26.728498
v 0.000000 -2.968069 -26.728498
v -14.784871 -2.968069 18.948071
v -14.784871 -2.968069 23.146152
v -14.784871 -2.609267 -30.926582
v -11.773862 -2.968069 -30.926582
v 11.773862 -2.609267 -30.926582
v 14.784871 -2.968069 -30.926582
v 14.784871 -2.968069 -26.728500
v 14.784871 -2.609267 23.146152
v 11.773862 -2.968069 23.146152
v -11.773862 -2.609267 23.146152
v -14.784871 -2.968069 -26.728498
v -14.784871 -2.968069 5.429888
v -14.784871 -1.788668 18.948069
v -14.784871 -0.968069 -13.210318
v 14.784871 -2.968069 18.948069
v 14.784871 -2.968069 -13.210318
v 14.784871 -1.788668 -26.728498
v 14.784871 -0.968069 5.429888
v 11.773862 -0.968069 -22.530416
v 14.784871 -0.968069 14.749989
v -11.773862 -2.968069 -22.530416
v -11.773862 -2.968069 14.749987
v 14.784871 -2.968069 -22.530418
v 14.784871 -2.968069 14.749985
v -14.784871 -2.968069 14.749989
v -14.784871 -2.968069 -22.530415
v 11.773862 -2.968069 -30.926582
v 0.000000 -2.968069 -30.926582
v -11.773862 -2.609267 -30.926582
v 0.000000 -2.609267 -30.926582
v -11.773862 -2.968069 23.146152
v 0.000000 -2.968069 23.146152
v 11.773862 -2.609267 23.146152
v 0.000000 -2.609267 23.146152
v -8.762853 -0.968069 -22.530416
v 0.000000 -0.968069 -22.530416
v -8.762853 -0.968069 14.749987
v 8.762853 -0.968069 14.749987
v 8.762853 -2.968069 -22.530416
v 0.000000 -2.968069 -22.530416
v 8.762853 -2.968069 14.749987
v -8.762853 -2.968069 14.749987
v -8.762853 -2.968069 5.429886
v 8.762853 -2.968069 5.429886
v -8.762853 -2.968069 -26.728498
v 8.762853 -2.968069 -26.728498
v 8.762853 -0.968069 5.429886
v -8.762853 -0.968069 5.429886
v 8.762853 -1.788668 -26.728498
v -8.762853 -1.788668 -26.728498
v 8.762853 -1.788668 18.948069
v -8.762853 -1.788668 18.948069
v -8.762853 -2.968069 18.948069
v 8.762853 -2.968069 18.948069
v 8.762853 -2.968069 23.146152
v -8.762853 -2.968069 23.146152
v -8.762853 -2.968069 -30.926582
v 8.762853 -2.968069 -30.926582
v -8.762853 -2.609267 23.146152
v -11.773862 -2.968069 -22.530416
v -11.773862 -2.968069 14.749987
v -14.784871 -2.609267 -30.926582
v -14.784871 -0.968069 -22.530418
v -11.773862 -0.968069 14.749987
v -11.773862 -1.788668 -26.728498
v -11.773862 -2.609267 23.146152
v 8.762853 -2.609267 -30.926582
v 11.773862 -0.968069 -22.530416
v 8.762853 -0.968069 14.749987
v 14.784871 -2.609267 23.146152
v 14.784871 -2.968069 -22.530418
v 14.784871 -2.968069 14.749985
v 11.773862 -2.609267 23.146152
v 11.773862 -2.968069 5.429886
v 11.773862 -2.968069 -26.728498
v -14.784871 6.445646 -20.266697
v 14.784871 6.445646 12.486267
v 11.773862 6.445646 -20.266697
v -11.773862 6.445646 -20.266697
v -11.773862 6.445646 12.486267
v -11.773862 6.445646 4.298026
v 11.773862 6.445646 4.298026
v 14.784871 1.589649 -21.749435
v -14.784871 1.602019 13.965227
v 14.784871 1.589649 13.969009
v -14.784871 -0.968069 -22.530418
v -11.773862 1.602019 -21.745661
v -11.773862 1.602019 13.965231
v 8.762853 1.657597 13.839323
v -8.762853 1.657597 13.839323
v -11.773862 1.602019 5.037508
v 11.773862 1.589649 -21.749437
v 11.773862 1.589649 5.039396
v -8.762853 1.657597 -21.619753
v 8.762853 -0.968069 -22.530416
v 11.773862 1.589649 13.969007
v 8.762853 1.657597 13.839323
v 14.784871 1.589649 -21.749435
v -14.784871 1.602019 13.965227
v 14.784871 1.589649 13.969009
v -14.784871 1.602019 -21.745661
v -14.784871 1.602019 -21.745661
v -11.773862 6.445646 -20.266697
v 11.773862 6.445646 12.486267
v -14.784871 -2.968069 -13.210314
v -14.784871 -2.968069 -3.890213
v -14.784871 -0.968069 5.429884
v -14.784871 -0.968069 -3.890217
v -14.784871 -0.968069 -3.890217
v 14.784871 -2.968069 5.429884
v 14.784871 -2.968069 -3.890217
v 14.784871 -0.968069 -13.210314
v 14.784871 -0.968069 -3.890213
v 14.784871 -0.968069 -3.890213
v -8.762853 -2.968069 -22.530416
v -8.762853 -2.968069 -13.210316
v -8.762853 -2.968069 -3.890215
v 8.762853 -2.968069 -13.210316
v 8.762853 -2.968069 -3.890215
v 8.762853 -2.968069 5.429886
v 8.762853 -0.968069 -13.210316
v 8.762853 -0.968069 -3.890215
v 8.762853 -0.968069 -3.890215
v -8.762853 -0.968069 -13.210316
v -8.762853 -0.968069 -13.210316
v -8.762853 -0.968069 -3.890215
v -11.773862 -2.968069 -13.210316
v -11.773862 -2.968069 -3.890215
v -11.773862 -2.968069 5.429886
v 11.773862 -2.968069 -22.530416
v 11.773862 -2.968069 -13.210316
v 11.773862 -2.968069 -3.890215
v -14.784871 6.445646 12.486265
v -14.784871 6.445646 4.298025
v -14.784871 6.445646 -12.078456
v 14.784871 6.445646 -20.266695
v 14.784871 6.445646 -12.078455
v 14.784871 6.445646 4.298026
v -11.773862 6.445646 -12.078456
v -11.773862 6.445646 4.298026
v 11.773862 6.445646 -20.266697
v 11.773862 6.445646 -12.078456
v 11.773862 6.445646 4.298026
v 8.762853 1.657597 -21.619753
v 8.762853 1.657597 -12.754984
v 8.762853 1.657597 4.974554
v -8.762853 1.657597 -12.754984
v -8.762853 1.657597 4.974554
v -11.773862 1.602019 -12.817938
v -11.773862 1.602019 -3.890215
v -11.773862 1.602019 -3.890215
v 11.773862 1.589649 -12.819826
v 11.773862 1.589649 -3.890215
v 11.773862 1.589649 -3.890215
v 14.784871 1.589649 -12.819824
v 14.784871 1.589649 -12.819824
v 14.784871 1.589649 5.039398
v -14.784871 1.602019 5.037505
v -14.784871 1.602019 5.037505
v -14.784871 1.602019 -12.817939
v -14.784871 -0.968069 -13.210318
v 14.784871 -0.968069 5.429888
v -11.773862 1.602019 -12.817938
v 11.773862 1.589649 5.039396
v -14.784871 1.602019 -12.817939
v -14.784871 1.602019 -3.890217
v -11.773862 1.602019 5.037508
v -11.773862 1.602019 -3.890215
v 14.784871 1.589649 5.039398
v 14.784871 1.589649 -3.890213
v 11.773862 1.589649 -12.819826
v 11.773862 1.589649 -3.890215
v 11.773862 6.445646 -12.078456
v 11.773862 6.445646 -3.890214
v -11.773862 6.445646 -12.078456
v -14.784871 6.445646 -3.890216
v 11.773862 -2.968069 5.429886
v 0.000000 -0.968069 -13.210316
v 0.000000 -0.968069 -3.890215
v 8.762853 -0.968069 5.429886
v -8.762853 -0.968069 5.429886
v -8.762853 -0.968069 -3.890215
v 0.000000 -2.968069 -13.210316
v 0.000000 -2.968069 -3.890215
v -8.762853 -2.968069 5.429886
v -11.773862 -2.968069 -13.210316
v -11.773862 -2.968069 -3.890215
v -14.784871 -2.968069 5.429888
v -14.784871 -2.968069 -3.890213
v 14.784871 -2.968069 -13.210318
v 14.784871 -2.968069 -3.890217
v -8.762853 -2.609267 -30.926582
v 8.762853 -2.609267 23.146152
v 0.000000 -0.968069 -22.530416
v 0.000000 -0.968069 14.749987
v 0.000000 -2.968069 -22.530416
v 0.000000 -2.968069 14.749987
v 0.000000 -0.968069 -13.210316
v 0.000000 -0.968069 -3.890215
v 0.000000 -2.968069 -13.210316
v 0.000000 -2.968069 -3.890215
v 0.000000 -2.968069 5.429886
v 0.000000 -0.968069 5.429886
v 0.000000 -2.609267 23.146152
v 14.784871 -0.968069 14.749989
v -14.784871 -1.788668 18.948069
v 14.784871 -2.968069 18.948069
v 8.762853 -1.788668 18.948069
v -8.762853 -1.788668 18.948069
v -8.762853 -2.968069 18.948069
v 8.762853 -2.968069 18.948069
v -11.773862 -2.968069 18.948069
v -11.773862 -0.968069 14.749987
v 11.773862 -1.788668 18.948069
v 11.773862 -2.968069 14.749987
v 0.000000 -2.968069 14.749987
v 0.000000 -0.968069 14.749987
v 0.000000 -1.788668 18.948069
v 0.000000 -2.968069 18.948069
v 11.773862 -2.968069 18.948069
v 14.784871 -1.788668 18.948071
v -11.773862 -1.788668 18.948069
v 14.784871 -2.968069 18.948069
v -14.784871 -2.968069 -26.728498
v 14.784871 -1.788668 -26.728498
v -8.762853 -2.968069 -26.728498
v 8.762853 -2.968069 -26.728498
v 8.762853 -1.788668 -26.728498
v -8.762853 -1.788668 -26.728498
v -11.773862 -2.968069 -30.926582
v -11.773862 -2.609267 -30.926582
v 11.773862 -2.609267 -30.926582
v 11.773862 -2.968069 -30.926582
v 0.000000 -2.609267 -30.926582
v 0.000000 -2.968069 -30.926582
v 0.000000 -2.968069 -26.728498
v 0.000000 -1.788668 -26.728498
v 11.773862 -2.968069 -26.728498
v 14.784871 -1.788668 -26.728498
v -11.773862 -1.788668 -26.728498
v -14.784871 -2.968069 18.948071
v -14.784871 -2.968069 14.749989
v -14.784871 -2.609267 23.146152
v -11.773862 -2.968069 23.146152
v -14.784871 -1.788668 -26.728500
v -14.784871 -1.788668 -26.728500
v -11.773862 -2.609267 -30.926582
v -14.784871 -2.968069 -26.728498
v -8.762853 -2.968069 -30.926582
v -11.773862 -2.968069 -26.728498
v 8.762853 -2.609267 -30.926582
v 11.773862 -1.788668 -26.728498
v 14.784871 -2.609267 -30.926582
v 14.784871 -2.968069 -26.728500
v 11.773862 -2.968069 -30.926582
v 14.784871 -1.788668 18.948071
v 11.773862 -2.609267 23.146152
v 11.773862 -2.968069 23.146152
v 8.762853 -2.968069 23.146152
v -8.762853 -2.609267 23.146152
v -11.773862 -2.968069 23.146152
v -14.784871 -2.968069 -22.530415
v -14.784871 -2.968069 -22.530415
v -14.784871 -0.968069 5.429884
v -14.784871 -0.968069 14.749985
v -14.784871 -1.788668 18.948069
v -11.773862 -0.968069 14.749987
v -14.784871 1.602019 13.965227
v -14.784871 -0.968069 -3.890217
v -14.784871 -2.968069 -13.210314
v 14.784871 -2.968069 14.749985
v 11.773862 -2.968069 14.749987
v 14.784871 -0.968069 -13.210314
v 11.773862 -2.968069 -13.210316
v 14.784871 -0.968069 -22.530415
v 11.773862 -2.968069 -22.530416
v 11.773862 -0.968069 -22.530416
v 14.784871 1.589649 -21.749435
v 14.784871 -0.968069 -3.890213
v 8.762853 -0.968069 14.749987
v 11.773862 1.589649 13.969007
v 11.773862 -1.788668 18.948069
v -8.762853 -2.968069 14.749987
v -11.773862 -2.968069 18.948069
v 8.762853 -2.968069 -30.926582
v 0.000000 -2.968069 -26.728498
v -8.762853 -2.609267 -30.926582
v 0.000000 -1.788668 -26.728498
v -8.762853 -2.968069 23.146152
v 0.000000 -2.968069 23.146152
v 8.762853 -2.609267 23.146152
v -8.762853 -0.968069 -22.530416
v -11.773862 1.602019 -21.745661
v -8.762853 -0.968069 -22.530416
v 8.762853 -0.968069 -22.530416
v 8.762853 -0.968069 -13.210316
v -8.762853 1.657597 13.839323
v -8.762853 -0.968069 14.749987
v 0.000000 -0.968069 5.429886
v 0.000000 -1.788668 18.948069
v 8.762853 -2.968069 -22.530416
v -8.762853 -2.968069 -22.530416
v -8.762853 -2.968069 -13.210316
v 8.762853 -2.968069 14.749987
v 0.000000 -2.968069 5.429886
v 0.000000 -2.968069 18.948069
v -11.773862 -2.968069 5.429886
v 8.762853 -2.968069 -3.890215
v -8.762853 1.657597 4.974554
v 11.773862 -2.968069 -3.890215
v 14.784871 -2.968069 5.429884
v -14.784871 6.445646 -20.266697
v -11.773862 6.445646 -12.078456
v 14.784871 6.445646 12.486267
v 14.784871 6.445646 4.298026
v 11.773862 6.445646 12.486267
v 14.784871 6.445646 -20.266695
v -14.784871 6.445646 12.486265
v -11.773862 6.445646 12.486267
v -11.773862 6.445646 -3.890214
v -14.784871 6.445646 4.298025
v 11.773862 6.445646 -3.890214
v -8.762853 1.657597 -21.619753
v 8.762853 1.657597 4.974554
v 8.762853 1.657597 -21.619753
v 11.773862 1.589649 -3.890215
v -8.762853 -2.968069 -3.890215
v 8.762853 -2.968069 -13.210316
v 8.762853 -0.968069 -3.890215
v -8.762853 -0.968069 -3.890215
v -8.762853 1.657597 -12.754984
v -14.784871 1.602019 -3.890217
v 14.784871 6.445646 -12.078455
v 14.784871 1.589649 -3.890213
v -11.773862 1.602019 -3.890215
v 8.762853 1.657597 -12.754984
vn -1.0000 -0.0000 -0.0000
vn -0.0000 -0.0000 -1.0000
vn 1.0000 -0.0000 -0.0000
vn -0.0000 -0.0000 1.0000
vn -0.0000 -1.0000 -0.0000
vn -0.0000 0.9814 0.1918
vn -0.0000 0.9814 -0.1918
vn -0.0000 0.2920 0.9564
vn -0.0000 1.0000 -0.0000
vn -0.0000 0.2920 -0.9564
vn 0.0226 0.9997 -0.0000
vn -0.0185 0.9998 -0.0000
vn 0.0334 0.3275 -0.9443
vn -0.0333 0.3275 0.9443
vn 0.0334 0.3275 0.9443
vn -0.0333 0.3275 -0.9443
vt 0.375000 0.208333
vt 0.625000 0.250000
vt 0.375000 0.250000
vt 0.625000 0.458333
vt 0.375000 0.500000
vt 0.375000 0.458333
vt 0.375000 0.708333
vt 0.625000 0.750000
vt 0.375000 0.750000
vt 0.625000 0.958333
vt 0.375000 1.000000
vt 0.375000 0.958333
vt 0.333333 0.750000
vt 0.333333 0.708333
vt 0.875000 0.708333
vt 0.833333 0.750000
vt 0.833333 0.708333
vt 0.833333 0.541667
vt 0.875000 0.583333
vt 0.833333 0.583333
vt 0.875000 0.666667
vt 0.833333 0.666667
vt 0.875000 0.666667
vt 0.333333 0.541667
vt 0.375000 0.583333
vt 0.333333 0.583333
vt 0.333333 0.645833
vt 0.375000 0.666667
vt 0.333333 0.666667
vt 0.625000 0.541667
vt 0.375000 0.541667
vt 0.625000 0.645833
vt 0.375000 0.645833
vt 0.625000 0.041667
vt 0.375000 0.083333
vt 0.375000 0.041667
vt 0.625000 0.145833
vt 0.375000 0.166667
vt 0.375000 0.145833
vt 0.208333 0.645833
vt 0.166667 0.666667
vt 0.166667 0.645833
vt 0.291667 0.645833
vt 0.250000 0.666667
vt 0.250000 0.645833
vt 0.208333 0.541667
vt 0.166667 0.583333
vt 0.166667 0.541667
vt 0.291667 0.541667
vt 0.250000 0.583333
vt 0.250000 0.541667
vt 0.791667 0.604167
vt 0.791667 0.583333
vt 0.791667 0.645833
vt 0.750000 0.666667
vt 0.750000 0.645833
vt 0.708333 0.541667
vt 0.666667 0.583333
vt 0.666667 0.541667
vt 0.791667 0.541667
vt 0.750000 0.583333
vt 0.750000 0.541667
vt 0.708333 0.708333
vt 0.666667 0.750000
vt 0.666667 0.708333
vt 0.791667 0.708333
vt 0.750000 0.750000
vt 0.750000 0.708333
vt 0.208333 0.708333
vt 0.166667 0.750000
vt 0.166667 0.708333
vt 0.291667 0.708333
vt 0.250000 0.750000
vt 0.250000 0.708333
vt 0.625000 0.791667
vt 0.375000 0.833333
vt 0.375000 0.791667
vt 0.625000 0.875000
vt 0.375000 0.916667
vt 0.375000 0.875000
vt 0.625000 0.291667
vt 0.375000 0.333333
vt 0.375000 0.291667
vt 0.625000 0.375000
vt 0.375000 0.416667
vt 0.375000 0.375000
vt 0.125000 0.708333
vt 0.125000 0.750000
vt 0.125000 0.541667
vt 0.125000 0.583333
vt 0.125000 0.645833
vt 0.125000 0.666667
vt 0.791667 0.666667
vt 0.791667 0.750000
vt 0.625000 0.916667
vt 0.625000 0.708333
vt 0.625000 0.583333
vt 0.625000 0.583333
vt 0.291667 0.666667
vt 0.291667 0.583333
vt 0.291667 0.750000
vt 0.625000 0.416667
vt 0.833333 0.645833
vt 0.666667 0.645833
vt 0.625000 0.666667
vt 0.666667 0.666667
vt 0.625000 0.666667
vt 0.625000 0.604167
vt 0.625000 0.604167
vt 0.833333 0.604167
vt 0.833333 0.604167
vt 0.625000 0.104167
vt 0.625000 0.083333
vt 0.833333 0.583333
vt 0.708333 0.666667
vt 0.708333 0.583333
vt 0.708333 0.645833
vt 0.625000 0.166667
vt 0.625000 0.125000
vt 0.625000 0.625000
vt 0.625000 0.645833
vt 0.625000 0.625000
vt 0.708333 0.604167
vt 0.708333 0.625000
vt 0.833333 0.625000
vt 0.791667 0.625000
vt 0.666667 0.604167
vt 0.666667 0.625000
vt 0.833333 0.666667
vt 0.833333 0.625000
vt 0.666667 0.583333
vt 0.875000 0.625000
vt 0.875000 0.645833
vt 0.291667 0.604167
vt 0.333333 0.604167
vt 0.291667 0.625000
vt 0.333333 0.625000
vt 0.166667 0.604167
vt 0.125000 0.604167
vt 0.166667 0.625000
vt 0.125000 0.625000
vt 0.750000 0.604167
vt 0.750000 0.625000
vt 0.250000 0.604167
vt 0.250000 0.625000
vt 0.208333 0.583333
vt 0.208333 0.604167
vt 0.208333 0.625000
vt 0.375000 0.104167
vt 0.375000 0.125000
vt 0.375000 0.604167
vt 0.375000 0.625000
vt 0.625000 0.333333
vt 0.625000 0.833333
vt 0.208333 0.750000
vt 0.708333 0.750000
vt 0.208333 0.666667
vt 0.625000 0.000000
vt 0.375000 0.000000
vt 0.250000 0.500000
vt 0.208333 0.500000
vt 0.750000 0.500000
vt 0.708333 0.500000
vt 0.333333 0.500000
vt 0.291667 0.500000
vt 0.666667 0.500000
vt 0.625000 0.500000
vt 0.833333 0.500000
vt 0.791667 0.500000
vt 0.166667 0.500000
vt 0.125000 0.500000
vt 0.875000 0.541667
vt 0.625000 0.208333
vt 0.625000 1.000000
vt 0.875000 0.750000
vt 0.875000 0.604167
vt 0.875000 0.500000
s 0
usemtl Material.001
f 896/1/1 181/2/1 183/3/1
f 188/4/2 193/5/2 276/6/2
f 879/7/3 201/8/3 203/9/3
f 208/10/4 175/11/4 300/12/4
f 895/7/5 205/13/5 438/14/5
f 224/15/6 738/16/6 423/17/6
f 737/18/7 735/19/7 324/20/7
f 473/21/8 752/22/8 459/23/8
f 747/24/5 743/25/5 352/26/5
f 746/27/5 744/28/5 364/29/5
f 249/30/3 247/25/3 197/31/3
f 256/32/3 241/28/3 537/33/3
f 223/34/1 221/35/1 172/36/1
f 230/37/1 215/38/1 523/39/1
f 375/40/5 273/41/5 417/42/5
f 378/43/5 370/44/5 659/45/5
f 381/46/5 270/47/5 414/48/5
f 384/49/5 358/50/5 670/51/5
f 565/52/3 486/53/3 613/52/3
f 390/54/9 345/55/9 650/56/9
f 393/57/7 264/58/7 429/59/7
f 396/60/7 331/61/7 667/62/7
f 399/63/6 311/64/6 426/65/6
f 402/66/6 317/67/6 664/68/6
f 405/69/5 299/70/5 411/71/5
f 408/72/5 305/73/5 661/74/5
f 745/75/4 309/76/4 206/77/4
f 876/78/4 303/79/4 306/80/4
f 287/81/2 285/82/2 186/83/2
f 293/84/2 279/85/2 282/86/2
f 182/2/2 676/83/2 184/3/2
f 673/87/5 916/70/5 174/88/5
f 683/89/5 693/47/5 214/90/5
f 684/91/5 694/41/5 220/92/5
f 709/93/8 487/22/8 337/22/8
f 912/18/7 326/53/7 398/60/7
f 894/17/6 322/94/6 404/66/6
f 24/95/4 38/12/4 304/79/4
f 202/8/4 930/77/4 5/9/4
f 200/96/6 929/64/6 6/8/6
f 251/30/7 691/58/7 253/97/7
f 770/98/10 750/58/10 453/97/10
f 849/27/5 366/99/5 380/43/5
f 910/24/5 354/100/5 386/49/5
f 892/14/5 310/101/5 410/72/5
f 297/102/2 699/6/2 278/85/2
f 753/103/9 460/23/9 462/22/9
f 466/104/9 749/105/9 446/32/9
f 514/104/1 456/106/1 468/104/1
f 475/107/8 54/106/8 513/106/8
f 631/108/3 808/97/3 589/109/3
f 619/110/3 458/20/3 595/111/3
f 637/112/1 49/113/1 585/112/1
f 479/19/10 457/20/10 482/114/10
f 516/104/11 496/115/11 510/106/11
f 501/103/12 762/93/12 498/54/12
f 329/53/13 759/20/13 485/53/13
f 335/116/10 506/58/10 265/58/10
f 387/117/1 497/115/1 495/117/1
f 349/115/14 512/106/14 62/115/14
f 541/109/3 469/98/3 633/108/3
f 692/105/8 953/106/8 266/106/8
f 949/58/10 950/98/10 15/97/10
f 235/19/10 965/114/10 39/20/10
f 529/112/1 472/113/1 639/112/1
f 736/22/8 940/21/8 227/23/8
f 232/37/1 480/118/1 12/118/1
f 781/119/1 521/37/1 231/37/1
f 532/119/1 831/112/1 640/119/1
f 258/32/3 477/107/3 16/105/3
f 786/120/3 518/121/3 257/32/3
f 544/120/3 828/108/3 634/122/3
f 793/123/1 505/116/1 336/116/1
f 794/124/1 608/123/1 560/123/1
f 563/124/1 818/117/1 611/124/1
f 58/53/12 835/111/12 615/52/12
f 819/52/12 622/125/12 616/126/12
f 623/125/12 820/54/12 617/126/12
f 997/116/11 824/127/11 508/58/11
f 111/123/11 825/128/11 626/127/11
f 826/128/11 113/117/11 515/104/11
f 522/37/1 444/118/1 68/118/1
f 642/119/1 442/37/1 128/37/1
f 1004/119/1 806/112/1 586/119/1
f 503/103/3 56/22/3 59/129/3
f 624/130/3 464/103/3 119/103/3
f 1007/130/3 811/111/3 598/125/3
f 519/121/3 52/105/3 66/107/3
f 636/122/3 447/32/3 125/121/3
f 1006/122/3 809/109/3 592/120/3
f 627/127/1 452/58/1 63/131/1
f 630/128/1 602/127/1 120/127/1
f 121/128/1 815/104/1 605/128/1
f 51/97/9 845/127/9 591/109/9
f 1005/109/9 846/128/9 594/120/9
f 109/128/9 987/32/9 103/120/9
f 50/19/9 597/111/9 55/20/9
f 105/111/9 848/132/9 600/125/9
f 992/125/9 993/133/9 107/103/9
f 353/26/5 790/134/5 356/100/5
f 578/135/5 791/136/5 554/134/5
f 581/137/5 792/43/5 557/136/5
f 9/90/5 571/138/5 525/139/5
f 777/139/5 574/140/5 526/141/5
f 778/141/5 418/42/5 218/91/5
f 25/53/9 644/142/9 332/61/9
f 566/52/9 647/143/9 645/142/9
f 569/126/9 875/56/9 648/143/9
f 392/54/3 969/93/3 343/93/3
f 570/126/3 981/54/3 92/54/3
f 91/126/3 114/52/3 115/126/3
f 29/100/5 653/144/5 359/50/5
f 84/134/5 656/145/5 654/144/5
f 85/136/5 874/45/5 657/145/5
f 362/146/5 573/138/5 35/47/5
f 548/147/5 576/140/5 93/138/5
f 551/148/5 95/42/5 94/140/5
f 937/113/1 219/149/1 10/35/1
f 936/112/1 528/150/1 71/149/1
f 73/119/1 69/39/1 70/150/1
f 947/97/3 688/151/3 246/25/3
f 945/109/3 783/152/3 244/151/3
f 79/120/3 782/33/3 538/152/3
f 47/26/5 862/151/5 579/135/5
f 96/135/5 863/152/5 582/137/5
f 982/137/5 983/33/5 98/27/5
f 856/145/5 377/40/5 552/148/5
f 855/144/5 999/148/5 549/147/5
f 712/50/5 975/147/5 360/146/5
f 851/143/9 389/117/9 564/124/9
f 850/142/9 1001/124/9 561/123/9
f 708/61/9 968/123/9 333/116/9
f 291/153/2 700/86/2 284/82/2
f 316/154/4 962/80/4 22/76/4
f 891/74/5 961/155/5 407/69/5
f 890/68/6 963/156/6 401/63/6
f 909/62/7 26/116/7 395/57/7
f 139/56/9 347/115/9 89/117/9
f 908/51/5 30/146/5 383/46/5
f 142/45/5 372/157/5 83/40/5
f 346/55/6 880/63/6 350/115/6
f 371/44/5 882/69/5 374/157/5
f 365/29/5 883/72/5 368/99/5
f 877/105/6 427/65/6 199/96/6
f 339/22/6 881/66/6 342/93/6
f 914/92/5 412/71/5 143/87/5
f 976/99/5 978/74/5 136/44/5
f 955/157/5 956/71/5 36/41/5
f 970/93/6 972/68/6 134/55/6
f 952/115/6 954/65/6 44/106/6
f 915/158/1 913/36/1 1/159/1
f 40/22/6 145/15/6 152/17/6
f 48/29/5 237/7/5 154/14/5
f 943/28/3 144/96/3 146/7/3
f 283/160/5 898/46/5 286/161/5
f 295/162/7 900/57/7 298/163/7
f 277/164/5 899/49/5 280/165/5
f 190/166/7 897/30/7 192/167/7
f 289/168/7 901/60/7 292/169/7
f 187/170/5 920/89/5 3/171/5
f 959/169/7 960/62/7 130/162/7
f 923/163/7 924/59/7 41/166/7
f 957/165/5 958/51/5 129/160/5
f 921/161/5 922/48/5 33/170/5
f 925/167/3 679/31/3 194/5/3
f 45/164/5 158/31/5 168/24/5
f 37/168/7 180/172/7 166/18/7
f 934/38/1 157/173/1 213/1/1
f 212/1/1 178/173/1 675/2/1
f 677/4/2 191/167/2 678/5/2
f 238/7/3 198/96/3 680/8/3
f 682/10/4 176/174/4 674/11/4
f 239/7/5 204/9/5 681/13/5
f 878/15/6 177/175/6 210/16/6
f 420/18/7 179/172/7 234/19/7
f 771/21/8 489/129/8 461/22/8
f 435/24/5 196/31/5 248/25/5
f 432/27/5 535/33/5 242/28/5
f 689/30/3 252/97/3 695/25/3
f 690/32/3 259/105/3 696/28/3
f 685/34/1 226/113/1 697/35/1
f 686/37/1 233/118/1 698/38/1
f 715/40/5 373/157/5 733/41/5
f 716/43/5 367/99/5 869/44/5
f 717/46/5 361/146/5 732/47/5
f 718/49/5 355/100/5 868/50/5
f 796/52/3 328/53/3 766/53/3
f 720/54/9 341/93/9 867/55/9
f 721/57/7 334/116/7 740/58/7
f 722/60/7 327/53/7 866/61/7
f 723/63/6 314/156/6 705/64/6
f 724/66/6 320/94/6 706/67/6
f 725/69/5 302/155/5 703/70/5
f 726/72/5 308/101/5 704/73/5
f 313/75/4 315/154/4 727/76/4
f 319/78/4 321/95/4 728/79/4
f 701/81/2 290/153/2 729/82/2
f 702/84/2 296/102/2 730/85/2
f 734/2/2 288/81/2 185/83/2
f 171/87/5 413/71/5 301/70/5
f 211/89/5 416/48/5 269/47/5
f 217/91/5 419/42/5 272/41/5
f 340/93/15 491/93/15 760/22/15
f 422/18/7 323/20/7 707/53/7
f 425/17/6 209/16/6 731/94/6
f 932/95/4 34/10/4 933/12/4
f 742/8/4 312/75/4 207/77/4
f 893/96/6 428/65/6 46/64/6
f 911/30/7 431/59/7 263/58/7
f 470/98/10 507/131/10 451/58/10
f 434/27/5 363/29/5 713/99/5
f 437/24/5 351/26/5 711/100/5
f 440/14/5 42/13/5 931/101/5
f 739/102/2 189/4/2 275/6/2
f 463/103/9 583/133/9 805/23/9
f 754/104/9 455/106/9 449/105/9
f 765/104/1 511/106/1 776/106/1
f 757/107/8 450/105/8 988/106/8
f 827/108/3 471/98/3 454/97/3
f 821/110/3 483/114/3 775/20/3
f 830/112/1 474/113/1 990/113/1
f 773/19/10 445/19/10 751/20/10
f 836/104/11 493/117/11 761/115/11
f 763/103/12 488/22/12 492/93/12
f 964/53/10 325/20/10 481/20/10
f 767/116/16 504/116/16 764/58/16
f 719/117/1 348/115/1 769/115/1
f 741/115/8 267/106/8 768/106/8
f 784/109/3 254/97/3 755/98/3
f 260/105/8 476/107/8 64/106/8
f 43/58/10 509/131/10 65/98/10
f 758/19/10 478/19/10 484/114/10
f 779/112/1 228/113/1 756/113/1
f 338/22/8 490/129/8 67/21/8
f 833/37/1 520/37/1 774/118/1
f 533/119/1 641/119/1 832/37/1
f 780/119/1 530/112/1 638/112/1
f 834/32/3 517/121/3 772/107/3
f 545/120/3 635/122/3 829/121/3
f 785/120/3 542/109/3 632/108/3
f 559/123/1 607/123/1 816/116/1
f 562/124/1 610/124/1 817/123/1
f 795/124/1 388/117/1 494/117/1
f 995/53/12 57/20/12 621/111/12
f 614/52/12 620/111/12 822/125/12
f 823/125/12 502/103/12 499/54/12
f 61/116/11 609/123/11 625/127/11
f 1008/123/11 612/124/11 628/128/11
f 629/128/11 112/124/11 996/117/11
f 837/37/1 441/37/1 748/118/1
f 838/119/1 587/119/1 807/37/1
f 127/119/1 126/112/1 584/112/1
f 839/103/3 465/103/3 991/22/3
f 840/130/3 599/125/3 812/103/3
f 118/130/3 117/110/3 596/111/3
f 841/121/3 448/32/3 986/105/3
f 842/122/3 593/120/3 810/32/3
f 124/122/3 123/108/3 590/109/3
f 843/127/1 601/127/1 813/58/1
f 844/128/1 604/128/1 814/127/1
f 998/128/1 122/104/1 467/104/1
f 989/97/9 53/58/9 603/127/9
f 102/109/9 108/127/9 606/128/9
f 994/128/9 110/104/9 104/32/9
f 984/19/9 443/176/9 847/111/9
f 985/111/9 101/176/9 588/132/9
f 106/125/9 100/132/9 99/133/9
f 802/26/5 577/135/5 553/134/5
f 803/135/5 580/137/5 556/136/5
f 804/137/5 433/27/5 379/43/5
f 935/90/5 271/47/5 799/138/5
f 524/139/5 572/138/5 800/140/5
f 527/141/5 575/140/5 801/42/5
f 966/53/9 567/52/9 870/142/9
f 797/52/9 568/126/9 871/143/9
f 798/126/9 391/54/9 651/56/9
f 853/54/3 500/54/3 60/93/3
f 854/126/3 618/126/3 116/54/3
f 1002/126/3 90/52/3 1003/52/3
f 973/100/5 555/134/5 872/144/5
f 1000/134/5 558/136/5 873/145/5
f 980/136/5 86/43/5 660/45/5
f 787/146/5 547/147/5 858/138/5
f 788/147/5 550/148/5 859/140/5
f 789/148/5 376/40/5 979/42/5
f 229/113/1 531/112/1 860/149/1
f 72/112/1 534/119/1 861/150/1
f 941/119/1 74/37/1 942/39/1
f 255/97/3 543/109/3 243/151/3
f 78/109/3 546/120/3 539/152/3
f 951/120/3 80/32/3 536/33/3
f 948/26/5 14/25/5 245/151/5
f 946/135/5 77/151/5 540/152/5
f 97/137/5 76/152/5 75/33/5
f 655/145/5 658/45/5 857/40/5
f 652/144/5 141/145/5 82/148/5
f 357/50/5 140/144/5 81/147/5
f 646/143/9 649/56/9 852/117/9
f 643/142/9 138/143/9 88/124/9
f 330/61/9 137/142/9 87/123/9
f 864/153/2 294/84/2 281/86/2
f 865/154/4 318/78/4 131/80/4
f 663/74/5 307/73/5 21/155/5
f 666/68/6 132/67/6 23/156/6
f 669/62/7 133/61/7 967/116/7
f 971/56/9 344/55/9 710/115/9
f 672/51/5 135/50/5 974/146/5
f 977/45/5 369/44/5 714/157/5
f 889/55/6 665/68/6 400/63/6
f 888/44/5 662/74/5 406/69/5
f 887/29/5 439/14/5 409/72/5
f 261/105/6 268/106/6 886/65/6
f 885/22/6 424/17/6 403/66/6
f 222/92/5 274/41/5 884/71/5
f 31/99/5 150/72/5 155/74/5
f 32/157/5 149/69/5 151/71/5
f 27/93/6 148/66/6 156/68/6
f 28/115/6 147/63/6 153/65/6
f 2/158/1 225/34/1 173/36/1
f 939/22/6 11/23/6 938/15/6
f 944/29/5 240/28/5 687/7/5
f 13/28/3 262/105/3 928/96/3
f 907/160/5 671/51/5 382/46/5
f 906/162/7 668/62/7 394/57/7
f 905/164/5 436/24/5 385/49/5
f 904/166/7 430/59/7 250/30/7
f 903/168/7 421/18/7 397/60/7
f 902/170/5 415/48/5 159/89/5
f 19/169/7 164/60/7 169/62/7
f 20/163/7 163/57/7 167/59/7
f 17/165/5 162/49/5 170/51/5
f 18/161/5 161/46/5 165/48/5
f 8/167/3 160/30/3 195/31/3
f 927/164/5 7/5/5 926/31/5
f 919/168/7 4/177/7 917/172/7
f 216/38/1 236/118/1 918/173/1
